<svg xmlns="http://www.w3.org/2000/svg" width="1320" height="940" viewBox="0 0 1320 940" font-family="ui-sans-serif, -apple-system, Segoe UI, Roboto, Helvetica, Arial, sans-serif">
<defs>
  <marker id="arrow" markerWidth="10" markerHeight="10" refX="8" refY="3" orient="auto" markerUnits="strokeWidth">
    <path d="M0,0 L8,3 L0,6 Z" fill="#495057"/>
  </marker>
  <marker id="arrowD" markerWidth="10" markerHeight="10" refX="8" refY="3" orient="auto" markerUnits="strokeWidth">
    <path d="M0,0 L8,3 L0,6 Z" fill="#adb5bd"/>
  </marker>
  <filter id="sh" x="-5%" y="-5%" width="110%" height="115%">
    <feDropShadow dx="0" dy="2" stdDeviation="2.5" flood-color="#000" flood-opacity="0.12"/>
  </filter>
</defs>
<rect x="0" y="0" width="1320" height="940" fill="#fbfbfd"/>
<text x="660" y="48" font-size="30" font-weight="800" fill="#212529" text-anchor="middle">Healix — High-Level Architecture</text>
<text x="660" y="74" font-size="14" fill="#868e96" text-anchor="middle">Local-first, AI-led testing · Electron app + healix CLI · Playwright-first · subscription auth (no API keys)</text>
<rect x="345" y="100" width="290" height="70" rx="12" ry="12" fill="#e5dbff" stroke="#7048e8" stroke-width="1.5" filter="url(#sh)"/>
<text x="490" y="132" font-size="16" font-weight="700" fill="#1e1e1e" text-anchor="middle">Electron App</text>
<text x="490" y="150" font-size="12.5" fill="#495057" text-anchor="middle">electron-vite + React / TypeScript</text>
<rect x="695" y="100" width="290" height="70" rx="12" ry="12" fill="#e5dbff" stroke="#7048e8" stroke-width="1.5" filter="url(#sh)"/>
<text x="840" y="132" font-size="16" font-weight="700" fill="#1e1e1e" text-anchor="middle">Healix CLI  (healix …)</text>
<text x="840" y="150" font-size="12.5" fill="#495057" text-anchor="middle">headless / CI parity</text>
<rect x="60" y="210" width="1200" height="420" rx="16" ry="16" fill="none" stroke="#5f3dc4" stroke-width="1.5" stroke-dasharray="2 6"/>
<text x="78" y="236" font-size="15" font-weight="700" fill="#5f3dc4">@healix/core  —  shared TypeScript orchestration</text>
<rect x="95" y="250" width="520" height="84" rx="12" ry="12" fill="#d0ebff" stroke="#1971c2" stroke-width="1.5" filter="url(#sh)"/>
<text x="355" y="280" font-size="16" font-weight="700" fill="#1e1e1e" text-anchor="middle">Orchestrator</text>
<text x="355" y="298" font-size="12.5" fill="#495057" text-anchor="middle">plan → explore → generate →</text>
<text x="355" y="316" font-size="12.5" fill="#495057" text-anchor="middle">execute → triage → report</text>
<rect x="700" y="250" width="525" height="84" rx="12" ry="12" fill="#d0ebff" stroke="#1971c2" stroke-width="1.5" filter="url(#sh)"/>
<text x="962.5" y="289" font-size="16" font-weight="700" fill="#1e1e1e" text-anchor="middle">Provider Router</text>
<text x="962.5" y="307" font-size="12.5" fill="#495057" text-anchor="middle">best-for-task routing + automatic fallback</text>
<rect x="95" y="354" width="330" height="76" rx="12" ry="12" fill="#d0ebff" stroke="#1971c2" stroke-width="1.5" filter="url(#sh)"/>
<text x="260" y="380" font-size="16" font-weight="700" fill="#1e1e1e" text-anchor="middle">Auth / Session Manager</text>
<text x="260" y="398" font-size="12.5" fill="#495057" text-anchor="middle">CLI login + health-check</text>
<text x="260" y="416" font-size="12.5" fill="#495057" text-anchor="middle">(stores no API keys)</text>
<rect x="450" y="354" width="330" height="76" rx="12" ry="12" fill="#d0ebff" stroke="#1971c2" stroke-width="1.5" filter="url(#sh)"/>
<text x="615" y="389" font-size="16" font-weight="700" fill="#1e1e1e" text-anchor="middle">Test-Mode Plugins</text>
<text x="615" y="407" font-size="12.5" fill="#495057" text-anchor="middle">Playwright · Selenium · XYZ</text>
<rect x="805" y="354" width="420" height="76" rx="12" ry="12" fill="#d0ebff" stroke="#1971c2" stroke-width="1.5" filter="url(#sh)"/>
<text x="1015" y="389" font-size="16" font-weight="700" fill="#1e1e1e" text-anchor="middle">Target Adapter</text>
<text x="1015" y="407" font-size="12.5" fill="#495057" text-anchor="middle">repo (white-box)  /  URL (black-box)</text>
<rect x="95" y="450" width="520" height="96" rx="12" ry="12" fill="#d0ebff" stroke="#1971c2" stroke-width="1.5" filter="url(#sh)"/>
<text x="355" y="486" font-size="16" font-weight="700" fill="#1e1e1e" text-anchor="middle">Browser Surface</text>
<text x="355" y="504" font-size="12.5" fill="#495057" text-anchor="middle">one Playwright / CDP Chromium</text>
<text x="355" y="522" font-size="12.5" fill="#495057" text-anchor="middle">computer-use + browser-use → mirrored live to UI</text>
<rect x="700" y="450" width="250" height="96" rx="12" ry="12" fill="#d0ebff" stroke="#1971c2" stroke-width="1.5" filter="url(#sh)"/>
<text x="825" y="486" font-size="16" font-weight="700" fill="#1e1e1e" text-anchor="middle">Local Storage</text>
<text x="825" y="504" font-size="12.5" fill="#495057" text-anchor="middle">SQLite + filesystem</text>
<text x="825" y="522" font-size="12.5" fill="#495057" text-anchor="middle">artifacts · reports · suites</text>
<rect x="975" y="450" width="250" height="96" rx="12" ry="12" fill="#d0ebff" stroke="#1971c2" stroke-width="1.5" filter="url(#sh)"/>
<text x="1100" y="486" font-size="16" font-weight="700" fill="#1e1e1e" text-anchor="middle">Suite Exporter</text>
<text x="1100" y="504" font-size="12.5" fill="#495057" text-anchor="middle">standalone Playwright</text>
<text x="1100" y="522" font-size="12.5" fill="#495057" text-anchor="middle">project (zip)</text>
<rect x="700" y="680" width="250" height="64" rx="12" ry="12" fill="#d3f9d8" stroke="#2f9e44" stroke-width="1.5" filter="url(#sh)"/>
<text x="825" y="709" font-size="16" font-weight="700" fill="#1e1e1e" text-anchor="middle">Claude Code CLI</text>
<text x="825" y="727" font-size="12.5" fill="#495057" text-anchor="middle">plan mode</text>
<rect x="975" y="680" width="250" height="64" rx="12" ry="12" fill="#d3f9d8" stroke="#2f9e44" stroke-width="1.5" filter="url(#sh)"/>
<text x="1100" y="709" font-size="16" font-weight="700" fill="#1e1e1e" text-anchor="middle">Codex CLI</text>
<text x="1100" y="727" font-size="12.5" fill="#495057" text-anchor="middle">plan mode</text>
<rect x="835" y="778" width="250" height="56" rx="12" ry="12" fill="#d3f9d8" stroke="#2f9e44" stroke-width="1.5" filter="url(#sh)"/>
<text x="960" y="803" font-size="16" font-weight="700" fill="#1e1e1e" text-anchor="middle">Claude Agent SDK</text>
<text x="960" y="821" font-size="12.5" fill="#868e96" text-anchor="middle">fallback</text>
<rect x="95" y="680" width="240" height="64" rx="12" ry="12" fill="#ffe3e3" stroke="#e03131" stroke-width="1.5" filter="url(#sh)"/>
<text x="215" y="709" font-size="16" font-weight="700" fill="#1e1e1e" text-anchor="middle">Chromium</text>
<text x="215" y="727" font-size="12.5" fill="#495057" text-anchor="middle">headed / headless</text>
<rect x="360" y="680" width="255" height="64" rx="12" ry="12" fill="#ffe3e3" stroke="#e03131" stroke-width="1.5" filter="url(#sh)"/>
<text x="487.5" y="709" font-size="16" font-weight="700" fill="#1e1e1e" text-anchor="middle">Target App under test</text>
<text x="487.5" y="727" font-size="12.5" fill="#495057" text-anchor="middle">start command  /  external URL</text>
<rect x="360" y="778" width="255" height="56" rx="12" ry="12" fill="#fff3bf" stroke="#f08c00" stroke-width="1.5" filter="url(#sh)"/>
<text x="487.5" y="803" font-size="16" font-weight="700" fill="#1e1e1e" text-anchor="middle">Downloaded suite</text>
<text x="487.5" y="821" font-size="12.5" fill="#495057" text-anchor="middle">clone &amp; npm test anywhere</text>
<path d="M490,170 L275,250" fill="none" stroke="#495057" stroke-width="2"  marker-end="url(#arrow)"/>
<path d="M840,170 L435,250" fill="none" stroke="#495057" stroke-width="2"  marker-end="url(#arrow)"/>
<path d="M820,334 L825,680" fill="none" stroke="#495057" stroke-width="2"  marker-end="url(#arrow)"/>
<path d="M1080,334 L1100,680" fill="none" stroke="#495057" stroke-width="2"  marker-end="url(#arrow)"/>
<path d="M962.5,334 L960,778" fill="none" stroke="#adb5bd" stroke-width="2" stroke-dasharray="6 5" marker-end="url(#arrowD)"/>
<path d="M245,546 L215,680" fill="none" stroke="#495057" stroke-width="2"  marker-end="url(#arrow)"/>
<path d="M475,546 L420,680" fill="none" stroke="#495057" stroke-width="2"  marker-end="url(#arrow)"/>
<path d="M335,712 L360,712" fill="none" stroke="#495057" stroke-width="2"  marker-end="url(#arrow)"/>
<path d="M1100,546 L487.5,778" fill="none" stroke="#495057" stroke-width="2"  marker-end="url(#arrow)"/>
<rect x="95" y="880" width="22" height="14" rx="3" fill="#e5dbff" stroke="#7048e8" stroke-width="1.5"/>
<text x="125" y="892" font-size="13" fill="#495057">Front-ends</text>
<rect x="230" y="880" width="22" height="14" rx="3" fill="#d0ebff" stroke="#1971c2" stroke-width="1.5"/>
<text x="260" y="892" font-size="13" fill="#495057">@healix/core</text>
<rect x="380" y="880" width="22" height="14" rx="3" fill="#d3f9d8" stroke="#2f9e44" stroke-width="1.5"/>
<text x="410" y="892" font-size="13" fill="#495057">AI providers</text>
<rect x="530" y="880" width="22" height="14" rx="3" fill="#ffe3e3" stroke="#e03131" stroke-width="1.5"/>
<text x="560" y="892" font-size="13" fill="#495057">Browser / target</text>
<rect x="710" y="880" width="22" height="14" rx="3" fill="#fff3bf" stroke="#f08c00" stroke-width="1.5"/>
<text x="740" y="892" font-size="13" fill="#495057">Output</text>
<text x="1290" y="892" font-size="12" fill="#adb5bd" text-anchor="end">dashed = fallback path</text>
</svg>